<?xml version="1.0" encoding="UTF-8"?>
<svg id="Layer_2" data-name="Layer 2" xmlns="http://www.w3.org/2000/svg" viewBox="0 0 120.96 81.35">
  <defs>
    <style>
      .cls-1 {
        fill: #fff;
        stroke-width: 0px;
      }
    </style>
  </defs>
  <g id="Layer_1-2" data-name="Layer 1">
    <g>
      <path class="cls-1" d="m1.63,50.35c.9,1.52,6.44,10.64,16.51,12.21,1.35.21,5.26.62,9.87-.89,6.09-2,9.38-6.2,9.44-12.06.06-5.44-2.54-8.63-9.32-10.68-4.93-1.49-10.06-2.34-14.98-3.85C4.48,32.42.68,27.45.53,19.23.4,11.71,5.25,4.61,12.46,1.76c11.26-4.44,23.66-.28,30,10.12,7.28,11.94,14.39,23.99,21.79,35.86,6.2,9.95,17.4,14.75,28.34,12.57,11.17-2.23,19.58-10.55,21.74-21.5,2.75-13.92-5.51-27.6-19.03-31.54-4.21-1.22-8.48-1.41-12.52-.7-9.56,1.68-17.69,8.74-20.83,17.28-.8,2.18-1.15,4.12-1.32,5.51-.88-.86-2.35-2.53-3-5,0,0-.83-3.16.56-7.01,2.18-6.02,18.15-20.83,37.13-16.31,14.5,3.45,25.06,16.38,25.62,31.37.55,14.77-9.25,28.45-23.6,32.89-14.35,4.45-29.97-1.14-37.91-14-7.17-11.61-13.9-23.5-20.88-35.23-4.68-7.88-14.68-11.78-22.84-9.02-5.53,1.87-9.3,6.73-9.17,11.83.12,4.78,2.99,8.09,9.07,9.92,4.94,1.48,10.05,2.39,14.96,3.94,8.75,2.75,12.73,7.69,13.09,15.61.37,8.01-4.29,15.47-11.69,18.74-9.91,4.38-22.7,1.4-29.69-6.74C1.55,59.47.06,57.67,0,55.12c-.05-2.24,1.04-3.97,1.63-4.77Z"/>
      <path class="cls-1" d="m60.63,81.35h-6v-26.58c.82,1.09,1.89,2.63,3,4.58.61,1.07,1.42,2.5,2,4,.86,2.23.95,3.98,1,9,.03,3.57.02,6.62,0,9Z"/>
    </g>
  </g>
</svg>